<svg viewBox="0 0 400 300" xmlns="http://www.w3.org/2000/svg">
  <rect width="400" height="300" fill="#F8FAFC"/>
  <circle cx="80" cy="50" r="22" fill="#FEF9C3"/>
  <rect x="0" y="230" width="400" height="70" fill="#E2E8F0"/>
  <!-- market stall 1 -->
  <g stroke="#2563EB" stroke-width="4" fill="none" stroke-linejoin="round">
    <path d="M90 230 L90 170 L170 170 L170 230" />
    <path d="M80 170 L130 140 L180 170 Z" fill="#DBEAFE"/>
  </g>
  <!-- market stall 2 -->
  <g stroke="#0F766E" stroke-width="4" fill="none" stroke-linejoin="round">
    <path d="M210 230 L210 180 L290 180 L290 230" />
    <path d="M200 180 L250 150 L300 180 Z" fill="#CCFBF1"/>
  </g>
  <!-- doodle flags -->
  <g stroke="#F59E0B" stroke-width="3" fill="none">
    <path d="M60 100 L60 140" />
    <path d="M60 100 L85 110 L60 120 Z" fill="#FEF9C3"/>
    <path d="M340 90 L340 140" />
    <path d="M340 90 L365 100 L340 110 Z" fill="#FEF9C3"/>
  </g>
  <!-- baskets -->
  <circle cx="130" cy="215" r="10" fill="none" stroke="#2563EB" stroke-width="3"/>
  <circle cx="250" cy="215" r="10" fill="none" stroke="#0F766E" stroke-width="3"/>
  <line x1="0" y1="230" x2="400" y2="230" stroke="#94A3B8" stroke-width="3"/>
  <text x="200" y="280" font-family="Inter, sans-serif" font-size="13" fill="#94A3B8" text-anchor="middle">
    Illustrative image — not an actual photo of this place
  </text>
</svg>
